<svg viewBox="0 0 14 12" fill="currentColor" xmlns="http://www.w3.org/2000/svg">
<path d="M5.13634 11.1963C5.42923 11.4892 5.9041 11.4892 6.197 11.1963C6.48989 10.9035 6.48989 10.4286 6.197 10.1357L5.13634 11.1963ZM0.999999 5.99935L0.469669 5.46902C0.329017 5.60967 0.249999 5.80044 0.249999 5.99935C0.249999 6.19826 0.329017 6.38903 0.469669 6.52968L0.999999 5.99935ZM6.197 1.86301C6.48989 1.57012 6.48989 1.09525 6.197 0.802354C5.9041 0.509461 5.42923 0.50946 5.13634 0.802354L6.197 1.86301ZM13 6.74935C13.4142 6.74935 13.75 6.41356 13.75 5.99935C13.75 5.58514 13.4142 5.24935 13 5.24935L13 6.74935ZM6.197 10.1357L1.53033 5.46902L0.469669 6.52968L5.13634 11.1963L6.197 10.1357ZM1.53033 6.52968L6.197 1.86301L5.13634 0.802354L0.469669 5.46902L1.53033 6.52968ZM0.999999 6.74935L13 6.74935L13 5.24935L0.999999 5.24935L0.999999 6.74935Z"/>
</svg>
