<svg viewBox="0 0 20 16" xmlns="http://www.w3.org/2000/svg">
<path d="M7.46893 15.5825C7.76142 15.8758 8.23629 15.8765 8.52959 15.584C8.82289 15.2915 8.82355 14.8166 8.53107 14.5233L7.46893 15.5825ZM1 8.03341L0.468933 7.50382C0.177022 7.79654 0.177022 8.27028 0.468933 8.563L1 8.03341ZM8.53107 1.54351C8.82355 1.25021 8.82289 0.775335 8.52959 0.482849C8.23629 0.190363 7.76142 0.191024 7.46893 0.484324L8.53107 1.54351ZM19 8.78341C19.4142 8.78341 19.75 8.44762 19.75 8.03341C19.75 7.61919 19.4142 7.28341 19 7.28341V8.78341ZM8.53107 14.5233L1.53107 7.50382L0.468933 8.563L7.46893 15.5825L8.53107 14.5233ZM1.53107 8.563L8.53107 1.54351L7.46893 0.484324L0.468933 7.50382L1.53107 8.563ZM1 8.78341L19 8.78341V7.28341L1 7.28341L1 8.78341Z" />
</svg>
