<svg viewBox="0 0 14 12" fill="currentColor" xmlns="http://www.w3.org/2000/svg">
<path d="M8.86366 0.803654C8.57077 0.510761 8.0959 0.510761 7.803 0.803654C7.51011 1.09655 7.51011 1.57142 7.803 1.86431L8.86366 0.803654ZM13 6.00065L13.5303 6.53098C13.671 6.39033 13.75 6.19956 13.75 6.00065C13.75 5.80174 13.671 5.61097 13.5303 5.47032L13 6.00065ZM7.803 10.137C7.51011 10.4299 7.51011 10.9048 7.803 11.1976C8.0959 11.4905 8.57077 11.4905 8.86366 11.1976L7.803 10.137ZM1 5.25065C0.585786 5.25065 0.25 5.58644 0.25 6.00065C0.25 6.41486 0.585786 6.75065 1 6.75065L1 5.25065ZM7.803 1.86431L12.4697 6.53098L13.5303 5.47032L8.86366 0.803654L7.803 1.86431ZM12.4697 5.47032L7.803 10.137L8.86366 11.1976L13.5303 6.53098L12.4697 5.47032ZM13 5.25065L1 5.25065L1 6.75065L13 6.75065V5.25065Z"/>
</svg>
