<svg viewBox="0 0 19 20" fill="currentColor" xmlns="http://www.w3.org/2000/svg">
<path d="M11.2426 17.2426L10.7129 16.7117L10.7123 16.7123L11.2426 17.2426ZM2.75736 8.75736L3.28774 9.28774L3.29464 9.28064L2.75736 8.75736ZM9.17157 2.17157L8.6412 1.6412L8.63429 1.64829L9.17157 2.17157ZM14.8284 2.17157L14.2981 2.7019L14.8284 2.17157ZM14.8284 7.82843L14.2981 7.29805L14.2911 7.30514L14.8284 7.82843ZM5.58579 11.5858L5.05546 11.0555L5.58579 11.5858ZM8.41421 14.4142L8.94459 14.9446L8.9515 14.9375L8.41421 14.4142ZM12.7019 5.53033C12.9948 5.23744 12.9948 4.76256 12.7019 4.46967C12.409 4.17678 11.9341 4.17678 11.6412 4.46967L12.7019 5.53033ZM18.0297 11.531C18.3229 11.2384 18.3235 10.7635 18.031 10.4703C17.7384 10.1771 17.2635 10.1765 16.9703 10.469L18.0297 11.531ZM10.7123 16.7123C8.66206 18.7626 5.33794 18.7626 3.28769 16.7123L2.22703 17.773C4.86307 20.409 9.13693 20.409 11.773 17.773L10.7123 16.7123ZM3.28769 16.7123C1.23744 14.6621 1.23744 11.3379 3.28769 9.28769L2.22703 8.22703C-0.40901 10.8631 -0.40901 15.1369 2.22703 17.773L3.28769 16.7123ZM9.7019 2.7019C10.9711 1.4327 13.0289 1.4327 14.2981 2.7019L15.3588 1.64124C13.5038 -0.213748 10.4962 -0.213748 8.64124 1.64124L9.7019 2.7019ZM14.2981 2.7019C15.5673 3.97111 15.5673 6.02889 14.2981 7.2981L15.3588 8.35876C17.2137 6.50377 17.2137 3.49623 15.3588 1.64124L14.2981 2.7019ZM5.05546 11.0555C3.98151 12.1294 3.98152 13.8706 5.05546 14.9445L6.11612 13.8839C5.62796 13.3957 5.62796 12.6043 6.11612 12.1161L5.05546 11.0555ZM5.05546 14.9445C6.1294 16.0185 7.8706 16.0185 8.94454 14.9445L7.88388 13.8839C7.39573 14.372 6.60427 14.372 6.11612 13.8839L5.05546 14.9445ZM14.2911 7.30514L7.87693 13.8909L8.9515 14.9375L15.3657 8.35171L14.2911 7.30514ZM3.29464 9.28064L9.70886 2.69486L8.63429 1.64829L2.22008 8.23407L3.29464 9.28064ZM6.11612 12.1161L12.7019 5.53033L11.6412 4.46967L5.05546 11.0555L6.11612 12.1161ZM11.7723 17.7736L18.0297 11.531L16.9703 10.469L10.7129 16.7117L11.7723 17.7736Z" />
</svg>
