<svg viewBox="0 0 16 16" fill="currentColor" xmlns="http://www.w3.org/2000/svg">
<path d="M2.58337 14.0007C2.58337 14.4149 2.91916 14.7507 3.33337 14.7507C3.74759 14.7507 4.08337 14.4149 4.08337 14.0007H2.58337ZM11.9167 14.0007C11.9167 14.4149 12.2525 14.7507 12.6667 14.7507C13.0809 14.7507 13.4167 14.4149 13.4167 14.0007H11.9167ZM4.08337 13.334C4.08337 11.6434 5.72429 10.084 8.00004 10.084V8.58398C5.12113 8.58398 2.58337 10.6063 2.58337 13.334H4.08337ZM8.00004 10.084C10.2758 10.084 11.9167 11.6434 11.9167 13.334H13.4167C13.4167 10.6063 10.879 8.58398 8.00004 8.58398V10.084ZM2.58337 13.334V14.0007H4.08337V13.334H2.58337ZM13.4167 14.0007V13.334H11.9167V14.0007H13.4167Z" />
<path d="M9.91671 4.66667C9.91671 5.72521 9.05859 6.58333 8.00004 6.58333V8.08333C9.88701 8.08333 11.4167 6.55364 11.4167 4.66667H9.91671ZM8.00004 6.58333C6.9415 6.58333 6.08337 5.72521 6.08337 4.66667H4.58337C4.58337 6.55364 6.11307 8.08333 8.00004 8.08333V6.58333ZM6.08337 4.66667C6.08337 3.60812 6.9415 2.75 8.00004 2.75V1.25C6.11307 1.25 4.58337 2.77969 4.58337 4.66667H6.08337ZM8.00004 2.75C9.05859 2.75 9.91671 3.60812 9.91671 4.66667H11.4167C11.4167 2.77969 9.88701 1.25 8.00004 1.25V2.75Z" />
</svg>
