<svg viewBox="0 0 24 25" fill="currentColor" xmlns="http://www.w3.org/2000/svg">
<path d="M21.2814 14.4506C21.6654 14.2952 21.8506 13.858 21.6952 13.474C21.5398 13.0901 21.1025 12.9048 20.7186 13.0602L21.2814 14.4506ZM3.28141 13.0602C2.89746 12.9048 2.46022 13.0901 2.3048 13.474C2.14938 13.858 2.33464 14.2952 2.71859 14.4506L3.28141 13.0602ZM15.25 6.5C15.25 6.91421 15.5858 7.25 16 7.25C16.4142 7.25 16.75 6.91421 16.75 6.5H15.25ZM7.25 6.5C7.25 6.91421 7.58579 7.25 8 7.25C8.41421 7.25 8.75 6.91421 8.75 6.5H7.25ZM12 11.75C11.5858 11.75 11.25 12.0858 11.25 12.5C11.25 12.9142 11.5858 13.25 12 13.25V11.75ZM12.01 13.25C12.4242 13.25 12.76 12.9142 12.76 12.5C12.76 12.0858 12.4242 11.75 12.01 11.75V13.25ZM5 7.25H19V5.75H5V7.25ZM20.25 8.5V18.5H21.75V8.5H20.25ZM19 19.75H5V21.25H19V19.75ZM3.75 18.5V8.5H2.25V18.5H3.75ZM5 19.75C4.30964 19.75 3.75 19.1904 3.75 18.5H2.25C2.25 20.0188 3.48122 21.25 5 21.25V19.75ZM20.25 18.5C20.25 19.1904 19.6904 19.75 19 19.75V21.25C20.5188 21.25 21.75 20.0188 21.75 18.5H20.25ZM19 7.25C19.6904 7.25 20.25 7.80964 20.25 8.5H21.75C21.75 6.98122 20.5188 5.75 19 5.75V7.25ZM5 5.75C3.48122 5.75 2.25 6.98122 2.25 8.5H3.75C3.75 7.80964 4.30964 7.25 5 7.25V5.75ZM20.7186 13.0602C18.0272 14.1497 15.0846 14.75 12 14.75V16.25C15.2808 16.25 18.4142 15.6112 21.2814 14.4506L20.7186 13.0602ZM12 14.75C8.91538 14.75 5.97282 14.1497 3.28141 13.0602L2.71859 14.4506C5.58577 15.6112 8.71922 16.25 12 16.25V14.75ZM10 3.25H14V1.75H10V3.25ZM15.25 4.5V6.5H16.75V4.5H15.25ZM8.75 6.5V4.5H7.25V6.5H8.75ZM14 3.25C14.6904 3.25 15.25 3.80964 15.25 4.5H16.75C16.75 2.98122 15.5188 1.75 14 1.75V3.25ZM10 1.75C8.48122 1.75 7.25 2.98122 7.25 4.5H8.75C8.75 3.80964 9.30964 3.25 10 3.25V1.75ZM12 13.25H12.01V11.75H12V13.25Z"/>
</svg>
