<svg viewBox="0 0 20 21" fill="none" xmlns="http://www.w3.org/2000/svg">
<path d="M5.25 5.5C5.25 5.91421 5.58579 6.25 6 6.25C6.41421 6.25 6.75 5.91421 6.75 5.5H5.25ZM6.75 1.5C6.75 1.08579 6.41421 0.75 6 0.75C5.58579 0.75 5.25 1.08579 5.25 1.5H6.75ZM13.25 5.5C13.25 5.91421 13.5858 6.25 14 6.25C14.4142 6.25 14.75 5.91421 14.75 5.5H13.25ZM14.75 1.5C14.75 1.08579 14.4142 0.75 14 0.75C13.5858 0.75 13.25 1.08579 13.25 1.5H14.75ZM5 8.25C4.58579 8.25 4.25 8.58579 4.25 9C4.25 9.41421 4.58579 9.75 5 9.75V8.25ZM5.5 9.75C5.91421 9.75 6.25 9.41421 6.25 9C6.25 8.58579 5.91421 8.25 5.5 8.25V9.75ZM5 11.75C4.58579 11.75 4.25 12.0858 4.25 12.5C4.25 12.9142 4.58579 13.25 5 13.25V11.75ZM5.5 13.25C5.91421 13.25 6.25 12.9142 6.25 12.5C6.25 12.0858 5.91421 11.75 5.5 11.75V13.25ZM10 8.25C9.58579 8.25 9.25 8.58579 9.25 9C9.25 9.41421 9.58579 9.75 10 9.75V8.25ZM10.5 9.75C10.9142 9.75 11.25 9.41421 11.25 9C11.25 8.58579 10.9142 8.25 10.5 8.25V9.75ZM15 8.25C14.5858 8.25 14.25 8.58579 14.25 9C14.25 9.41421 14.5858 9.75 15 9.75V8.25ZM15.5 9.75C15.9142 9.75 16.25 9.41421 16.25 9C16.25 8.58579 15.9142 8.25 15.5 8.25V9.75ZM10 11.75C9.58579 11.75 9.25 12.0858 9.25 12.5C9.25 12.9142 9.58579 13.25 10 13.25V11.75ZM10.5 13.25C10.9142 13.25 11.25 12.9142 11.25 12.5C11.25 12.0858 10.9142 11.75 10.5 11.75V13.25ZM15 11.75C14.5858 11.75 14.25 12.0858 14.25 12.5C14.25 12.9142 14.5858 13.25 15 13.25V11.75ZM15.5 13.25C15.9142 13.25 16.25 12.9142 16.25 12.5C16.25 12.0858 15.9142 11.75 15.5 11.75V13.25ZM15 14.75C14.5858 14.75 14.25 15.0858 14.25 15.5C14.25 15.9142 14.5858 16.25 15 16.25V14.75ZM15.5 16.25C15.9142 16.25 16.25 15.9142 16.25 15.5C16.25 15.0858 15.9142 14.75 15.5 14.75V16.25ZM10 14.75C9.58579 14.75 9.25 15.0858 9.25 15.5C9.25 15.9142 9.58579 16.25 10 16.25V14.75ZM10.5 16.25C10.9142 16.25 11.25 15.9142 11.25 15.5C11.25 15.0858 10.9142 14.75 10.5 14.75V16.25ZM5 14.75C4.58579 14.75 4.25 15.0858 4.25 15.5C4.25 15.9142 4.58579 16.25 5 16.25V14.75ZM5.5 16.25C5.91421 16.25 6.25 15.9142 6.25 15.5C6.25 15.0858 5.91421 14.75 5.5 14.75V16.25ZM3 4.25H17V2.75H3V4.25ZM18.25 5.5V17.5H19.75V5.5H18.25ZM17 18.75H3V20.25H17V18.75ZM1.75 17.5V5.5H0.25V17.5H1.75ZM3 18.75C2.30964 18.75 1.75 18.1904 1.75 17.5H0.25C0.25 19.0188 1.48122 20.25 3 20.25V18.75ZM18.25 17.5C18.25 18.1904 17.6904 18.75 17 18.75V20.25C18.5188 20.25 19.75 19.0188 19.75 17.5H18.25ZM17 4.25C17.6904 4.25 18.25 4.80964 18.25 5.5H19.75C19.75 3.98122 18.5188 2.75 17 2.75V4.25ZM3 2.75C1.48122 2.75 0.25 3.98122 0.25 5.5H1.75C1.75 4.80964 2.30964 4.25 3 4.25V2.75ZM6.75 5.5V1.5H5.25V5.5H6.75ZM14.75 5.5V1.5H13.25V5.5H14.75ZM5 9.75H5.5V8.25H5V9.75ZM5 13.25H5.5V11.75H5V13.25ZM10 9.75H10.5V8.25H10V9.75ZM15 9.75H15.5V8.25H15V9.75ZM10 13.25H10.5V11.75H10V13.25ZM15 13.25H15.5V11.75H15V13.25ZM15 16.25H15.5V14.75H15V16.25ZM10 16.25H10.5V14.75H10V16.25ZM5 16.25H5.5V14.75H5V16.25Z" />
</svg>
