<svg viewBox="0 0 24 22" xmlns="http://www.w3.org/2000/svg">
    <mask id="path-1-inside-1_598_530" fill="white">
        <path
            d="M0 4C0 1.79087 1.79086 0 4 0H20C22.2091 0 24 1.79086 24 4V14.9909C24 17.1471 22.2909 18.9153 20.136 18.9886L15.6 19.1429L12 22L8.4 19.1429L3.86402 18.9886C1.70906 18.9153 0 17.1471 0 14.9909V4Z"/>
    </mask>
    <path
        d="M5 6.75H19V5.25H5V6.75ZM5 11.75H14V10.25H5V11.75ZM12 22L11.0675 23.1749L12 23.915L12.9325 23.1749L12 22ZM8.4 19.1429L9.33249 17.9679L8.94517 17.6605L8.45099 17.6437L8.4 19.1429ZM15.6 19.1429L15.549 17.6437L15.0548 17.6605L14.6675 17.9679L15.6 19.1429ZM3.86402 18.9886L3.81303 20.4877H3.81303L3.86402 18.9886ZM20.136 18.9886L20.187 20.4877L20.136 18.9886ZM4 1.5H20V-1.5H4V1.5ZM22.5 4V14.9909H25.5V4H22.5ZM1.5 14.9909V4H-1.5V14.9909H1.5ZM12.9325 20.8251L9.33249 17.9679L7.46751 20.3178L11.0675 23.1749L12.9325 20.8251ZM8.45099 17.6437L3.91501 17.4894L3.81303 20.4877L8.34901 20.642L8.45099 17.6437ZM20.085 17.4894L15.549 17.6437L15.651 20.642L20.187 20.4877L20.085 17.4894ZM14.6675 17.9679L11.0675 20.8251L12.9325 23.1749L16.5325 20.3178L14.6675 17.9679ZM-1.5 14.9909C-1.5 17.9557 0.849955 20.3869 3.81303 20.4877L3.91501 17.4894C2.56816 17.4436 1.5 16.3385 1.5 14.9909H-1.5ZM22.5 14.9909C22.5 16.3385 21.4318 17.4436 20.085 17.4894L20.187 20.4877C23.15 20.3869 25.5 17.9557 25.5 14.9909H22.5ZM20 1.5C21.3807 1.5 22.5 2.61929 22.5 4H25.5C25.5 0.962434 23.0376 -1.5 20 -1.5V1.5ZM4 -1.5C0.962432 -1.5 -1.5 0.96244 -1.5 4H1.5C1.5 2.61929 2.61929 1.5 4 1.5V-1.5Z"
        mask="url(#path-1-inside-1_598_530)"/>
</svg>
