<svg viewBox="0 0 10.54 7.67" fill="white" xmlns="http://www.w3.org/2000/svg">
<path d="M10.2989 0.221849C10.2292 0.151552 10.1463 0.0957565 10.0549 0.05768C9.96348 0.0196035 9.86545 0 9.76644 0C9.66743 0 9.5694 0.0196035 9.47801 0.05768C9.38661 0.0957565 9.30366 0.151552 9.23394 0.221849L3.64644 5.81685L1.29894 3.46185C1.22655 3.39192 1.14109 3.33693 1.04745 3.30003C0.953812 3.26313 0.853819 3.24503 0.753183 3.24677C0.652548 3.24851 0.553241 3.27006 0.460932 3.31018C0.368623 3.3503 0.285121 3.40821 0.215192 3.4806C0.145263 3.55299 0.0902774 3.63845 0.0533744 3.73209C0.0164714 3.82573 -0.00162641 3.92572 0.000114689 4.02636C0.00185579 4.12699 0.0234016 4.2263 0.0635218 4.31861C0.103642 4.41092 0.161551 4.49442 0.233942 4.56435L3.11394 7.44435C3.18366 7.51465 3.26661 7.57044 3.35801 7.60852C3.4494 7.64659 3.54743 7.6662 3.64644 7.6662C3.74545 7.6662 3.84348 7.64659 3.93487 7.60852C4.02627 7.57044 4.10922 7.51465 4.17894 7.44435L10.2989 1.32435C10.3751 1.25412 10.4358 1.16888 10.4774 1.074C10.5189 0.979129 10.5404 0.876675 10.5404 0.773099C10.5404 0.669522 10.5189 0.567069 10.4774 0.472194C10.4358 0.377319 10.3751 0.29208 10.2989 0.221849Z"/>
</svg>
