<svg viewBox="0 0 18 20" xmlns="http://www.w3.org/2000/svg">
<path d="M12.2929 1.29289L12.8232 0.762563V0.762563L12.2929 1.29289ZM16.7071 5.70711L17.2374 5.17678L16.7071 5.70711ZM7 1.75H11.5858V0.25H7V1.75ZM16.25 6.41421V13H17.75V6.41421H16.25ZM11.7626 1.82322L16.1768 6.23744L17.2374 5.17678L12.8232 0.762563L11.7626 1.82322ZM17.75 6.41421C17.75 5.95009 17.5656 5.50497 17.2374 5.17678L16.1768 6.23744C16.2237 6.28432 16.25 6.34791 16.25 6.41421H17.75ZM11.5858 1.75C11.6521 1.75 11.7157 1.77634 11.7626 1.82322L12.8232 0.762563C12.495 0.434375 12.0499 0.25 11.5858 0.25V1.75ZM7 14.25C6.30964 14.25 5.75 13.6904 5.75 13H4.25C4.25 14.5188 5.48122 15.75 7 15.75V14.25ZM15 15.75C16.5188 15.75 17.75 14.5188 17.75 13H16.25C16.25 13.6904 15.6904 14.25 15 14.25V15.75ZM5.75 3C5.75 2.30964 6.30964 1.75 7 1.75V0.25C5.48122 0.25 4.25 1.48122 4.25 3H5.75ZM3 19.75H11V18.25H3V19.75ZM0.25 7V17H1.75V7H0.25ZM3 18.25C2.30964 18.25 1.75 17.6904 1.75 17H0.25C0.25 18.5188 1.48122 19.75 3 19.75V18.25ZM5.75 13V5H4.25V13H5.75ZM5.75 5V3H4.25V5H5.75ZM3 5.75H5V4.25H3V5.75ZM15 14.25H13V15.75H15V14.25ZM13 14.25H7V15.75H13V14.25ZM13.75 17V15H12.25V17H13.75ZM1.75 7C1.75 6.30964 2.30964 5.75 3 5.75V4.25C1.48122 4.25 0.25 5.48122 0.25 7H1.75ZM11 19.75C12.5188 19.75 13.75 18.5188 13.75 17H12.25C12.25 17.6904 11.6904 18.25 11 18.25V19.75Z" />
</svg>
