<svg viewBox="0 0 24 24" fill="currentColor" xmlns="http://www.w3.org/2000/svg">
<path d="M13.2929 3.29289L12.7626 3.82322V3.82322L13.2929 3.29289ZM18.7071 8.70711L19.2374 8.17678L18.7071 8.70711ZM12.75 10C12.75 9.58579 12.4142 9.25 12 9.25C11.5858 9.25 11.25 9.58579 11.25 10H12.75ZM12 16L11.4697 16.5303C11.7626 16.8232 12.2374 16.8232 12.5303 16.5303L12 16ZM9.53033 12.4697C9.23744 12.1768 8.76256 12.1768 8.46967 12.4697C8.17678 12.7626 8.17678 13.2374 8.46967 13.5303L9.53033 12.4697ZM15.5303 13.5303C15.8232 13.2374 15.8232 12.7626 15.5303 12.4697C15.2374 12.1768 14.7626 12.1768 14.4697 12.4697L15.5303 13.5303ZM17 20.25H7V21.75H17V20.25ZM5.75 19V5H4.25V19H5.75ZM7 3.75H12.5858V2.25H7V3.75ZM18.25 9.41421V19H19.75V9.41421H18.25ZM12.7626 3.82322L18.1768 9.23744L19.2374 8.17678L13.8232 2.76256L12.7626 3.82322ZM19.75 9.41421C19.75 8.95009 19.5656 8.50497 19.2374 8.17678L18.1768 9.23744C18.2237 9.28432 18.25 9.34791 18.25 9.41421H19.75ZM12.5858 3.75C12.6521 3.75 12.7157 3.77634 12.7626 3.82322L13.8232 2.76256C13.495 2.43437 13.0499 2.25 12.5858 2.25V3.75ZM7 20.25C6.30964 20.25 5.75 19.6904 5.75 19H4.25C4.25 20.5188 5.48122 21.75 7 21.75V20.25ZM17 21.75C18.5188 21.75 19.75 20.5188 19.75 19H18.25C18.25 19.6904 17.6904 20.25 17 20.25V21.75ZM5.75 5C5.75 4.30964 6.30964 3.75 7 3.75V2.25C5.48122 2.25 4.25 3.48122 4.25 5H5.75ZM11.25 10V16H12.75V10H11.25ZM8.46967 13.5303L11.4697 16.5303L12.5303 15.4697L9.53033 12.4697L8.46967 13.5303ZM12.5303 16.5303L15.5303 13.5303L14.4697 12.4697L11.4697 15.4697L12.5303 16.5303Z"/>
</svg>
