<svg viewBox="0 0 18 19" xmlns="http://www.w3.org/2000/svg">
<path d="M1.75 13.5C1.75 13.0858 1.41421 12.75 1 12.75C0.585786 12.75 0.25 13.0858 0.25 13.5L1.75 13.5ZM17.75 13.5C17.75 13.0858 17.4142 12.75 17 12.75C16.5858 12.75 16.25 13.0858 16.25 13.5L17.75 13.5ZM13.5303 10.0303C13.8232 9.73744 13.8232 9.26256 13.5303 8.96967C13.2374 8.67678 12.7626 8.67678 12.4697 8.96967L13.5303 10.0303ZM9 13.5L8.46967 14.0303C8.76256 14.3232 9.23744 14.3232 9.53033 14.0303L9 13.5ZM5.53033 8.96967C5.23744 8.67678 4.76256 8.67678 4.46967 8.96967C4.17678 9.26256 4.17678 9.73744 4.46967 10.0303L5.53033 8.96967ZM9.75 1.5C9.75 1.08579 9.41421 0.75 9 0.75C8.58578 0.75 8.25 1.08579 8.25 1.5L9.75 1.5ZM14 16.75L4 16.75L4 18.25L14 18.25L14 16.75ZM1.75 14.5L1.75 13.5L0.25 13.5L0.25 14.5L1.75 14.5ZM16.25 13.5L16.25 14.5L17.75 14.5L17.75 13.5L16.25 13.5ZM14 18.25C16.0711 18.25 17.75 16.5711 17.75 14.5L16.25 14.5C16.25 15.7426 15.2426 16.75 14 16.75L14 18.25ZM4 16.75C2.75736 16.75 1.75 15.7426 1.75 14.5L0.25 14.5C0.25 16.5711 1.92893 18.25 4 18.25L4 16.75ZM12.4697 8.96967L8.46967 12.9697L9.53033 14.0303L13.5303 10.0303L12.4697 8.96967ZM9.53033 12.9697L5.53033 8.96967L4.46967 10.0303L8.46967 14.0303L9.53033 12.9697ZM9.75 13.5L9.75 1.5L8.25 1.5L8.25 13.5L9.75 13.5Z"/>
</svg>
