<svg viewBox="0 0 16 20" stroke-opacity="0" fill="currentColor" xmlns="http://www.w3.org/2000/svg">
<path d="M9.29289 1.29289L8.76256 1.82322V1.82322L9.29289 1.29289ZM14.7071 6.70711L15.2374 6.17678L14.7071 6.70711ZM8.75 8C8.75 7.58579 8.41421 7.25 8 7.25C7.58579 7.25 7.25 7.58579 7.25 8H8.75ZM8 14L7.46967 14.5303C7.76256 14.8232 8.23744 14.8232 8.53033 14.5303L8 14ZM5.53033 10.4697C5.23744 10.1768 4.76256 10.1768 4.46967 10.4697C4.17678 10.7626 4.17678 11.2374 4.46967 11.5303L5.53033 10.4697ZM11.5303 11.5303C11.8232 11.2374 11.8232 10.7626 11.5303 10.4697C11.2374 10.1768 10.7626 10.1768 10.4697 10.4697L11.5303 11.5303ZM13 18.25H3V19.75H13V18.25ZM1.75 17V3H0.25V17H1.75ZM3 1.75H8.58579V0.25H3V1.75ZM14.25 7.41421V17H15.75V7.41421H14.25ZM8.76256 1.82322L14.1768 7.23744L15.2374 6.17678L9.82322 0.762563L8.76256 1.82322ZM15.75 7.41421C15.75 6.95009 15.5656 6.50497 15.2374 6.17678L14.1768 7.23744C14.2237 7.28432 14.25 7.34791 14.25 7.41421H15.75ZM8.58579 1.75C8.65209 1.75 8.71568 1.77634 8.76256 1.82322L9.82322 0.762563C9.49504 0.434374 9.04991 0.25 8.58579 0.25V1.75ZM3 18.25C2.30964 18.25 1.75 17.6904 1.75 17H0.25C0.25 18.5188 1.48122 19.75 3 19.75V18.25ZM13 19.75C14.5188 19.75 15.75 18.5188 15.75 17H14.25C14.25 17.6904 13.6904 18.25 13 18.25V19.75ZM1.75 3C1.75 2.30964 2.30964 1.75 3 1.75V0.25C1.48122 0.25 0.25 1.48122 0.25 3H1.75ZM7.25 8V14H8.75V8H7.25ZM4.46967 11.5303L7.46967 14.5303L8.53033 13.4697L5.53033 10.4697L4.46967 11.5303ZM8.53033 14.5303L11.5303 11.5303L10.4697 10.4697L7.46967 13.4697L8.53033 14.5303Z" />
</svg>
