<svg viewBox="0 0 20 20" xmlns="http://www.w3.org/2000/svg">
    <path
        d="M18.2677 1.73223L18.798 1.2019V1.2019L18.2677 1.73223ZM4.5 19.0355V19.7855C4.69891 19.7855 4.88968 19.7065 5.03033 19.5658L4.5 19.0355ZM1 19.0355H0.25C0.25 19.4497 0.585786 19.7855 1 19.7855L1 19.0355ZM1 15.4644L0.46967 14.9341C0.329018 15.0747 0.25 15.2655 0.25 15.4644H1ZM13.7625 2.7019C13.4696 2.40901 12.9947 2.40901 12.7018 2.7019C12.409 2.9948 12.409 3.46967 12.7018 3.76256L13.7625 2.7019ZM16.2374 7.2981C16.5303 7.59099 17.0051 7.59099 17.298 7.2981C17.5909 7.0052 17.5909 6.53033 17.298 6.23744L16.2374 7.2981ZM15.2625 2.26256C15.9459 1.57915 17.054 1.57915 17.7374 2.26256L18.798 1.2019C17.5288 -0.067301 15.4711 -0.067301 14.2018 1.2019L15.2625 2.26256ZM17.7374 2.26256C18.4208 2.94598 18.4208 4.05402 17.7374 4.73744L18.798 5.7981C20.0672 4.52889 20.0672 2.47111 18.798 1.2019L17.7374 2.26256ZM17.7374 4.73744L3.96967 18.5051L5.03033 19.5658L18.798 5.7981L17.7374 4.73744ZM4.5 18.2855H1V19.7855H4.5V18.2855ZM14.2018 1.2019L0.46967 14.9341L1.53033 15.9947L15.2625 2.26256L14.2018 1.2019ZM0.25 15.4644V19.0355H1.75V15.4644H0.25ZM12.7018 3.76256L16.2374 7.2981L17.298 6.23744L13.7625 2.7019L12.7018 3.76256Z"/>
</svg>
