<?xml version="1.0" encoding="UTF-8"?>
<!DOCTYPE svg PUBLIC "-//W3C//DTD SVG 1.1//EN" "http://www.w3.org/Graphics/SVG/1.1/DTD/svg11.dtd">
<!-- Creator: CorelDRAW 2019 (64-Bit) -->
<svg xmlns="http://www.w3.org/2000/svg" xml:space="preserve" width="210mm" height="297mm" version="1.1" style="shape-rendering:geometricPrecision; text-rendering:geometricPrecision; image-rendering:optimizeQuality; fill-rule:evenodd; clip-rule:evenodd"
viewBox="0 0 21000 29700"
 xmlns:xlink="http://www.w3.org/1999/xlink"
 xmlns:xodm="http://www.corel.com/coreldraw/odm/2003"
 focusable="false">
 <g id="Layer_x0020_1">
  <path d="M17500 17475c-1662.5,0 -2975,1137.5 -3412.5,2625l-7962.5 0c-2450,0 -4375,-1925 -4375,-4375l0 -2625 12337.5 0c350,1487.5 1750,2625 3412.5,2625 1925,0 3500,-1575 3500,-3500 0,-1925 -1575,-3500 -3500,-3500 -1662.5,0 -2975,1137.5 -3412.5,2625l-12337.5 0 0 -4375c0,-525 -350,-875 -875,-875 -525,0 -875,350 -875,875l0 8750c0,3412.5 2712.5,6125 6125,6125l7962.5 0c350,1487.5 1750,2625 3412.5,2625 1925,0 3500,-1575 3500,-3500 0,-1925 -1575,-3500 -3500,-3500zm0 -7000c962.5,0 1750,787.5 1750,1750 0,962.5 -787.5,1750 -1750,1750 -962.5,0 -1750,-787.5 -1750,-1750 0,-962.5 787.5,-1750 1750,-1750zm0 12250c-962.5,0 -1750,-787.5 -1750,-1750 0,-962.5 787.5,-1750 1750,-1750 962.5,0 1750,787.5 1750,1750 0,962.5 -787.5,1750 -1750,1750z"/>
 </g>
</svg>
