<svg viewBox="0 0 24 24" fill="#30C07C" xmlns="http://www.w3.org/2000/svg">
<path d="M4.01166 5.0116C4.00523 3.90251 4.90253 3 6.01163 3H12H15.1019C15.6731 3 16.2172 3.2443 16.5967 3.67127L19.4948 6.93167C19.8202 7.29777 20 7.77057 20 8.26039L20 12L20 19C20 20.1046 19.1046 21 18 21L6.0928 21C4.99276 21 4.09921 20.1116 4.09283 19.0116L4.01166 5.0116Z" />
<path d="M8.03474 9.53256C8.01593 9.24423 8.24472 9.00003 8.53366 9.00003H13L15.5 9C15.7761 9 16 9.22386 16 9.50001C16 9.77615 15.7761 10 15.5 10H8.53366C8.27016 10 8.05189 9.7955 8.03474 9.53256Z" fill="white"/>
<path d="M8.03474 12.5326C8.01593 12.2442 8.24472 12 8.53366 12H13L15.5 12C15.7761 12 16 12.2239 16 12.5C16 12.7761 15.7761 13 15.5 13H8.53366C8.27016 13 8.05189 12.7955 8.03474 12.5326Z" fill="white"/>
<path d="M8.02121 15.5204C8.00964 15.2365 8.23666 15 8.52079 15H11.125L12.5 15C12.7761 15 13 15.2239 13 15.5C13 15.7761 12.7761 16 12.5 16H8.52079C8.25257 16 8.03214 15.7884 8.02121 15.5204Z" fill="white"/>
</svg>
