<svg viewBox="0 0 24 24" fill="none" xmlns="http://www.w3.org/2000/svg">
<path d="M2.00016 4.99996C2.00018 3.89541 2.8956 3 4.00016 3H8.38653C8.97682 3 9.53695 3.26076 9.91696 3.71245L10.7005 4.6438C10.8905 4.86964 11.1706 5.00002 11.4657 5.00002H18C19.1045 5.00002 20 5.89545 20 7.00002L20 19C20 20.1046 19.1045 21 18 21H3.99991C2.89533 21 1.99989 20.1045 1.99991 18.9999L2.00016 4.99996Z" fill="#26A469"/>
<path d="M3 8C3 6.89543 3.89543 6 5 6H18C19.1046 6 20 6.89543 20 8V19C20 20.1046 19.1046 21 18 21H5C3.89543 21 3 20.1046 3 19L3 8Z" fill="white"/>
<path d="M3.82467 8.65299C3.9961 7.69702 4.84149 7 5.82954 7H19.9638C21.2191 7 22.1753 8.10534 21.9729 9.32249L20.0091 19.3225C19.8482 20.2898 18.9976 21 18 21H4.0363C2.77071 21 1.81185 19.8775 2.03143 18.653L3.82467 8.65299Z" fill="#30C07C"/>
</svg>
