<svg viewBox="0 0 20 20" fill="none" xmlns="http://www.w3.org/2000/svg">
<path d="M8 19.2858V14.2789C8 13.929 8.375 13.5718 8.75 13.5718L11.25 13.5647C11.625 13.5647 12 13.9218 12 14.2789V19.2786C12 19.4681 12.079 19.6497 12.2197 19.7837C12.3603 19.9176 12.5511 19.9929 12.75 19.9929L19.25 20C19.4489 20 19.6397 19.9248 19.7803 19.7908C19.921 19.6569 20 19.4752 20 19.2858C20 17.0946 20 11.9464 20 9.88692C20 9.32783 19.7661 8.79745 19.3551 8.41846C17.5931 6.79375 12.686 2.26291 10.531 0.209839C10.4613 0.143324 10.3786 0.0905517 10.2875 0.0545448C10.1963 0.0185379 10.0987 3.63281e-06 10 3.63281e-06C9.90135 3.63281e-06 9.80367 0.0185379 9.71255 0.0545448C9.62143 0.0905517 9.53867 0.143324 9.469 0.209839C7.46013 2.12293 2.43073 6.76985 0.643045 8.41964C0.232456 8.79856 0 9.32755 0 9.88627C0 11.9454 0 17.0944 0 19.2858C0 19.4752 0.0790176 19.6569 0.21967 19.7908C0.360322 19.9248 0.551088 20 0.75 20H7.25C7.44891 20 7.63968 19.9248 7.78033 19.7908C7.92098 19.6569 8 19.4752 8 19.2858Z" />
</svg>
