<svg viewBox="0 0 24 24" fill="none" xmlns="http://www.w3.org/2000/svg">
<path d="M20.8499 10.2132V19.6004C20.8499 20.2907 20.2903 20.8504 19.5999 20.8504H15.3999C15.2618 20.8504 15.1499 20.7385 15.1499 20.6004V16.3886C15.1499 15.4221 14.3664 14.6386 13.3999 14.6386H10.5999C9.6334 14.6386 8.8499 15.4221 8.8499 16.3886V20.6004C8.8499 20.7385 8.73797 20.8504 8.5999 20.8504H4.3999C3.70955 20.8504 3.1499 20.2907 3.1499 19.6004V10.2132C3.1499 9.80702 3.34723 9.42619 3.67905 9.19196L11.279 3.82726C11.7112 3.5222 12.2886 3.5222 12.7208 3.82726L20.3208 9.19196C20.6526 9.42619 20.8499 9.80702 20.8499 10.2132Z" stroke="currentColor" stroke-width="1.5"/>
</svg>
