<svg viewBox="0 0 112 112" fill="none" xmlns="http://www.w3.org/2000/svg">
<path d="M88.6642 14H23.3309C18.1762 14 13.9976 18.1787 13.9976 23.3333V88.6667C13.9976 93.8213 18.1762 98 23.3309 98H88.6642C93.8189 98 97.9976 93.8213 97.9976 88.6667V23.3333C97.9976 18.1787 93.8189 14 88.6642 14Z" stroke="#AAAAAA" stroke-linecap="round" stroke-linejoin="round"/>
<path d="M39.6641 46.668C43.5301 46.668 46.6641 43.534 46.6641 39.668C46.6641 35.802 43.5301 32.668 39.6641 32.668C35.7981 32.668 32.6641 35.802 32.6641 39.668C32.6641 43.534 35.7981 46.668 39.6641 46.668Z" stroke="#AAAAAA" stroke-linecap="round" stroke-linejoin="round"/>
<path d="M97.6437 70.3549C97.8389 70.5501 98.1555 70.5501 98.3508 70.3549C98.5461 70.1596 98.5461 69.843 98.3508 69.6478L97.6437 70.3549ZM22.977 97.6478C22.7818 97.843 22.7818 98.1596 22.977 98.3549C23.1723 98.5501 23.4889 98.5501 23.6841 98.3549L22.977 97.6478ZM76.2318 48.2359L75.8783 48.5895L76.2318 48.2359ZM73.096 48.2359L73.4495 48.5895L73.096 48.2359ZM98.3508 69.6478L76.5854 47.8823L75.8783 48.5895L97.6437 70.3549L98.3508 69.6478ZM72.7424 47.8823L22.977 97.6478L23.6841 98.3549L73.4495 48.5895L72.7424 47.8823ZM76.5854 47.8823C75.5242 46.8211 73.8036 46.8211 72.7424 47.8823L73.4495 48.5895C74.1202 47.9188 75.2076 47.9188 75.8783 48.5895L76.5854 47.8823Z" fill="#AAAAAA"/>
</svg>
