<svg id="Слой_1" data-name="Слой 1" xmlns="http://www.w3.org/2000/svg" viewBox="0 0 322.81 322.81"><defs><style>.cls-1{fill:#317153;}.cls-2{fill:#efefef;}.cls-3{fill:#fff;}.cls-4{fill:#26c87c;}</style></defs><rect class="cls-1" width="322.81" height="322.81" rx="45"/><rect class="cls-2" x="24.53" y="15.43" width="273.76" height="273.76" rx="15"/><rect class="cls-3" x="14.77" y="28.09" width="293.27" height="274.68" rx="15"/><rect class="cls-4" y="42.73" width="322.81" height="280.09" rx="45"/><path class="cls-3" d="M282.67,269a42.86,42.86,0,0,0-31.41-13.41A43.78,43.78,0,0,0,236.69,258a70.87,70.87,0,0,0-122.11,31.05q-1.1,1.55-2.1,3.15a56,56,0,0,0,15.2,109.83h58.88V365.41H169.51a4,4,0,0,1-3.17-6.43l35.44-46.34a4,4,0,0,1,6.35,0L243.58,359a4,4,0,0,1-3.18,6.43H223.35v36.64h47.81A67,67,0,0,0,282.67,269Z" transform="translate(-43.55 -135.33)"/></svg>
