<svg viewBox="0 0 24 25" fill="currentColor" xmlns="http://www.w3.org/2000/svg">
<path d="M19 21.5V22.25H19L19 21.5ZM5 21.5L4.99999 22.25H5V21.5ZM3.00001 20.75C2.5858 20.75 2.25001 21.0858 2.25 21.5C2.24999 21.9142 2.58578 22.25 2.99999 22.25L3.00001 20.75ZM9 6.74998C8.58579 6.74998 8.25 7.08576 8.25 7.49998C8.25 7.91419 8.58579 8.24998 9 8.24998V6.74998ZM10 8.24998C10.4142 8.24998 10.75 7.91419 10.75 7.49998C10.75 7.08576 10.4142 6.74998 10 6.74998V8.24998ZM9 10.75C8.58579 10.75 8.25 11.0858 8.25 11.5C8.25 11.9142 8.58579 12.25 9 12.25V10.75ZM10 12.25C10.4142 12.25 10.75 11.9142 10.75 11.5C10.75 11.0858 10.4142 10.75 10 10.75V12.25ZM14 6.74998C13.5858 6.74998 13.25 7.08576 13.25 7.49998C13.25 7.91419 13.5858 8.24998 14 8.24998V6.74998ZM15 8.24998C15.4142 8.24998 15.75 7.91419 15.75 7.49998C15.75 7.08576 15.4142 6.74998 15 6.74998V8.24998ZM14 10.75C13.5858 10.75 13.25 11.0858 13.25 11.5C13.25 11.9142 13.5858 12.25 14 12.25V10.75ZM15 12.25C15.4142 12.25 15.75 11.9142 15.75 11.5C15.75 11.0858 15.4142 10.75 15 10.75V12.25ZM21 22.25C21.4142 22.25 21.75 21.9142 21.75 21.5C21.75 21.0858 21.4142 20.75 21 20.75L21 22.25ZM7 4.25H17V2.75H7V4.25ZM18.25 5.5V21.5H19.75V5.5H18.25ZM5.75 21.5V5.5H4.25V21.5H5.75ZM17 4.25C17.6904 4.25 18.25 4.80964 18.25 5.5H19.75C19.75 3.98122 18.5188 2.75 17 2.75V4.25ZM7 2.75C5.48122 2.75 4.25 3.98122 4.25 5.5H5.75C5.75 4.80964 6.30964 4.25 7 4.25V2.75ZM2.99999 22.25L4.99999 22.25L5.00001 20.75L3.00001 20.75L2.99999 22.25ZM11 16.25H13V14.75H11V16.25ZM9 8.24998H10V6.74998H9V8.24998ZM9 12.25H10V10.75H9V12.25ZM14 8.24998H15V6.74998H14V8.24998ZM14 12.25H15V10.75H14V12.25ZM13 16.25C13.1381 16.25 13.25 16.3619 13.25 16.5H14.75C14.75 15.5335 13.9665 14.75 13 14.75V16.25ZM10.75 16.5C10.75 16.3619 10.8619 16.25 11 16.25V14.75C10.0335 14.75 9.25 15.5335 9.25 16.5H10.75ZM10 20.75H5V22.25H10V20.75ZM9.25 16.5V21.5H10.75V16.5H9.25ZM19 22.25L21 22.25L21 20.75L19 20.75L19 22.25ZM19 20.75H14V22.25H19V20.75ZM14 20.75H10V22.25H14V20.75ZM13.25 16.5V21.5H14.75V16.5H13.25Z"/>
</svg>
