<svg viewBox="0 0 24 25" fill="currentColor" xmlns="http://www.w3.org/2000/svg">
<path d="M20.2677 4.23223L20.798 3.7019V3.7019L20.2677 4.23223ZM6.5 21.5355V22.2855C6.69891 22.2855 6.88968 22.2065 7.03033 22.0658L6.5 21.5355ZM3 21.5355H2.25C2.25 21.9497 2.58579 22.2855 3 22.2855V21.5355ZM3 17.9644L2.46967 17.4341C2.32902 17.5747 2.25 17.7655 2.25 17.9644H3ZM15.7625 5.2019C15.4696 4.90901 14.9947 4.90901 14.7018 5.2019C14.409 5.4948 14.409 5.96967 14.7018 6.26256L15.7625 5.2019ZM18.2374 9.7981C18.5303 10.091 19.0051 10.091 19.298 9.7981C19.5909 9.5052 19.5909 9.03033 19.298 8.73744L18.2374 9.7981ZM17.2625 4.76256C17.9459 4.07915 19.054 4.07915 19.7374 4.76256L20.798 3.7019C19.5288 2.4327 17.4711 2.4327 16.2018 3.7019L17.2625 4.76256ZM19.7374 4.76256C20.4208 5.44598 20.4208 6.55402 19.7374 7.23744L20.798 8.2981C22.0672 7.02889 22.0672 4.97111 20.798 3.7019L19.7374 4.76256ZM19.7374 7.23744L5.96967 21.0051L7.03033 22.0658L20.798 8.2981L19.7374 7.23744ZM6.5 20.7855H3V22.2855H6.5V20.7855ZM16.2018 3.7019L2.46967 17.4341L3.53033 18.4947L17.2625 4.76256L16.2018 3.7019ZM2.25 17.9644V21.5355H3.75V17.9644H2.25ZM14.7018 6.26256L18.2374 9.7981L19.298 8.73744L15.7625 5.2019L14.7018 6.26256Z"/>
</svg>
