<svg  viewBox="0 0 18 18" fill="currentColor" xmlns="http://www.w3.org/2000/svg">
<path d="M0.46967 12.4697C0.176777 12.7626 0.176777 13.2374 0.46967 13.5303C0.762563 13.8232 1.23744 13.8232 1.53033 13.5303L0.46967 12.4697ZM5.58579 8.41421L6.11612 8.94454L5.58579 8.41421ZM8.41421 8.41421L8.94454 7.88388L8.41421 8.41421ZM12.4697 13.5303C12.7626 13.8232 13.2374 13.8232 13.5303 13.5303C13.8232 13.2374 13.8232 12.7626 13.5303 12.4697L12.4697 13.5303ZM10.4697 10.4697C10.1768 10.7626 10.1768 11.2374 10.4697 11.5303C10.7626 11.8232 11.2374 11.8232 11.5303 11.5303L10.4697 10.4697ZM15.4142 9.41421L14.8839 9.94454L15.4142 9.41421ZM16.4697 11.5303C16.7626 11.8232 17.2374 11.8232 17.5303 11.5303C17.8232 11.2374 17.8232 10.7626 17.5303 10.4697L16.4697 11.5303ZM11 4.25C10.5858 4.25 10.25 4.58579 10.25 5C10.25 5.41421 10.5858 5.75 11 5.75V4.25ZM11.01 5.75C11.4242 5.75 11.76 5.41421 11.76 5C11.76 4.58579 11.4242 4.25 11.01 4.25V5.75ZM3 1.75H15V0.25H3V1.75ZM16.25 3V15H17.75V3H16.25ZM15 16.25H3V17.75H15V16.25ZM1.75 15V3H0.25V15H1.75ZM3 16.25C2.30964 16.25 1.75 15.6904 1.75 15H0.25C0.25 16.5188 1.48122 17.75 3 17.75V16.25ZM16.25 15C16.25 15.6904 15.6904 16.25 15 16.25V17.75C16.5188 17.75 17.75 16.5188 17.75 15H16.25ZM15 1.75C15.6904 1.75 16.25 2.30964 16.25 3H17.75C17.75 1.48122 16.5188 0.25 15 0.25V1.75ZM3 0.25C1.48122 0.25 0.25 1.48122 0.25 3H1.75C1.75 2.30964 2.30964 1.75 3 1.75V0.25ZM1.53033 13.5303L6.11612 8.94454L5.05546 7.88388L0.46967 12.4697L1.53033 13.5303ZM7.88388 8.94454L12.4697 13.5303L13.5303 12.4697L8.94454 7.88388L7.88388 8.94454ZM6.11612 8.94454C6.60427 8.45639 7.39573 8.45639 7.88388 8.94454L8.94454 7.88388C7.8706 6.80994 6.1294 6.80994 5.05546 7.88388L6.11612 8.94454ZM11.5303 11.5303L13.1161 9.94454L12.0555 8.88388L10.4697 10.4697L11.5303 11.5303ZM14.8839 9.94454L16.4697 11.5303L17.5303 10.4697L15.9445 8.88388L14.8839 9.94454ZM13.1161 9.94454C13.6043 9.45639 14.3957 9.45639 14.8839 9.94454L15.9445 8.88388C14.8706 7.80994 13.1294 7.80994 12.0555 8.88388L13.1161 9.94454ZM11 5.75H11.01V4.25H11V5.75Z" />
</svg>
