<svg viewBox="0 0 20 21" stroke-opacity="0" fill="currentColor" xmlns="http://www.w3.org/2000/svg">
<path d="M15 14.75C14.5858 14.75 14.25 15.0858 14.25 15.5C14.25 15.9142 14.5858 16.25 15 16.25V14.75ZM5 16.25C5.41421 16.25 5.75 15.9142 5.75 15.5C5.75 15.0858 5.41421 14.75 5 14.75V16.25ZM15 7.5V8.25C15.4142 8.25 15.75 7.91421 15.75 7.5H15ZM5 7.5H4.25C4.25 7.91421 4.58579 8.25 5 8.25V7.5ZM3 8.25H17V6.75H3V8.25ZM18.25 9.5V13.5H19.75V9.5H18.25ZM1.75 13.5V9.5H0.25V13.5H1.75ZM17 14.75H15V16.25H17V14.75ZM5 14.75H3V16.25H5V14.75ZM0.25 13.5C0.25 15.0188 1.48122 16.25 3 16.25V14.75C2.30964 14.75 1.75 14.1904 1.75 13.5H0.25ZM18.25 13.5C18.25 14.1904 17.6904 14.75 17 14.75V16.25C18.5188 16.25 19.75 15.0188 19.75 13.5H18.25ZM17 8.25C17.6904 8.25 18.25 8.80964 18.25 9.5H19.75C19.75 7.98122 18.5188 6.75 17 6.75V8.25ZM3 6.75C1.48122 6.75 0.25 7.98122 0.25 9.5H1.75C1.75 8.80964 2.30964 8.25 3 8.25V6.75ZM7 12.25H13V10.75H7V12.25ZM14.25 13.5V17.5H15.75V13.5H14.25ZM13 18.75H7V20.25H13V18.75ZM5.75 17.5V13.5H4.25V17.5H5.75ZM7 18.75C6.30964 18.75 5.75 18.1904 5.75 17.5H4.25C4.25 19.0188 5.48122 20.25 7 20.25V18.75ZM14.25 17.5C14.25 18.1904 13.6904 18.75 13 18.75V20.25C14.5188 20.25 15.75 19.0188 15.75 17.5H14.25ZM13 12.25C13.6904 12.25 14.25 12.8096 14.25 13.5H15.75C15.75 11.9812 14.5188 10.75 13 10.75V12.25ZM7 10.75C5.48122 10.75 4.25 11.9812 4.25 13.5H5.75C5.75 12.8096 6.30964 12.25 7 12.25V10.75ZM7 2.25H13V0.75H7V2.25ZM14.25 3.5V7.5H15.75V3.5H14.25ZM15 6.75H5V8.25H15V6.75ZM5.75 7.5V3.5H4.25V7.5H5.75ZM13 2.25C13.6904 2.25 14.25 2.80964 14.25 3.5H15.75C15.75 1.98122 14.5188 0.75 13 0.75V2.25ZM7 0.75C5.48122 0.75 4.25 1.98122 4.25 3.5H5.75C5.75 2.80964 6.30964 2.25 7 2.25V0.75Z" />
</svg>
