<svg viewBox="0 0 20 21" xmlns="http://www.w3.org/2000/svg">
<path d="M18.4689 20.0798C18.7614 20.3731 19.2363 20.3737 19.5296 20.0812C19.8229 19.7888 19.8236 19.3139 19.5311 19.0206L18.4689 20.0798ZM13.5311 13.0039C13.2386 12.7106 12.7637 12.7099 12.4704 13.0024C12.1771 13.2949 12.1764 13.7697 12.4689 14.063L13.5311 13.0039ZM14.25 8.51951C14.25 11.984 11.4498 14.789 8 14.789V16.289C12.2822 16.289 15.75 12.8085 15.75 8.51951H14.25ZM8 14.789C4.55019 14.789 1.75 11.984 1.75 8.51951H0.25C0.25 12.8085 3.71783 16.289 8 16.289V14.789ZM1.75 8.51951C1.75 5.05499 4.55019 2.25 8 2.25V0.75C3.71783 0.75 0.25 4.2305 0.25 8.51951H1.75ZM8 2.25C11.4498 2.25 14.25 5.05499 14.25 8.51951H15.75C15.75 4.2305 12.2822 0.75 8 0.75V2.25ZM19.5311 19.0206L13.5311 13.0039L12.4689 14.063L18.4689 20.0798L19.5311 19.0206Z" />
</svg>
