<svg viewBox="0 0 18 18" fill="currentColor" xmlns="http://www.w3.org/2000/svg">
<path d="M9.75 1C9.75 0.585786 9.41421 0.25 9 0.25C8.58579 0.25 8.25 0.585786 8.25 1H9.75ZM3.75 1C3.75 0.585786 3.41421 0.25 3 0.25C2.58579 0.25 2.25 0.585786 2.25 1H3.75ZM8.25 17C8.25 17.4142 8.58579 17.75 9 17.75C9.41421 17.75 9.75 17.4142 9.75 17H8.25ZM15.75 1C15.75 0.585786 15.4142 0.25 15 0.25C14.5858 0.25 14.25 0.585786 14.25 1H15.75ZM2.25 17C2.25 17.4142 2.58579 17.75 3 17.75C3.41421 17.75 3.75 17.4142 3.75 17H2.25ZM14.25 17C14.25 17.4142 14.5858 17.75 15 17.75C15.4142 17.75 15.75 17.4142 15.75 17H14.25ZM9.75 3V1H8.25V3H9.75ZM4.25 13C4.25 13.6904 3.69036 14.25 3 14.25V15.75C4.51878 15.75 5.75 14.5188 5.75 13H4.25ZM3 14.25C2.30964 14.25 1.75 13.6904 1.75 13H0.25C0.25 14.5188 1.48122 15.75 3 15.75V14.25ZM1.75 13C1.75 12.3096 2.30964 11.75 3 11.75V10.25C1.48122 10.25 0.25 11.4812 0.25 13H1.75ZM3 11.75C3.69036 11.75 4.25 12.3096 4.25 13H5.75C5.75 11.4812 4.51878 10.25 3 10.25V11.75ZM10.25 5C10.25 5.69036 9.69036 6.25 9 6.25V7.75C10.5188 7.75 11.75 6.51878 11.75 5H10.25ZM9 6.25C8.30964 6.25 7.75 5.69036 7.75 5H6.25C6.25 6.51878 7.48122 7.75 9 7.75V6.25ZM7.75 5C7.75 4.30964 8.30964 3.75 9 3.75V2.25C7.48122 2.25 6.25 3.48122 6.25 5H7.75ZM9 3.75C9.69036 3.75 10.25 4.30964 10.25 5H11.75C11.75 3.48122 10.5188 2.25 9 2.25V3.75ZM16.25 13C16.25 13.6904 15.6904 14.25 15 14.25V15.75C16.5188 15.75 17.75 14.5188 17.75 13H16.25ZM15 14.25C14.3096 14.25 13.75 13.6904 13.75 13H12.25C12.25 14.5188 13.4812 15.75 15 15.75V14.25ZM13.75 13C13.75 12.3096 14.3096 11.75 15 11.75V10.25C13.4812 10.25 12.25 11.4812 12.25 13H13.75ZM15 11.75C15.6904 11.75 16.25 12.3096 16.25 13H17.75C17.75 11.4812 16.5188 10.25 15 10.25V11.75ZM3.75 11V1H2.25V11H3.75ZM9.75 17V7H8.25V17H9.75ZM15.75 11V1H14.25V11H15.75ZM3.75 17V15H2.25V17H3.75ZM15.75 17V15H14.25V17H15.75Z" />
</svg>
