<svg width="44" height="50" viewBox="0 0 44 50" fill="none" xmlns="http://www.w3.org/2000/svg">
<g clip-path="url(#clip0_50_783)">
<path d="M42.2986 34.7125L43.9748 33.7521C44.0426 33.7156 44.0986 33.6607 44.1362 33.5938V33.5917C44.3289 33.2729 44.1362 32.7271 43.9099 32.3104C43.6145 31.7979 43.1032 31.2792 42.6863 31.5417L39.688 33.2417L37.6891 32.0875L39.3653 31.1271C39.4331 31.0906 39.4891 31.0357 39.5266 30.9688V30.9667C39.5703 30.8668 39.5924 30.7589 39.5916 30.65V30.6458C39.551 30.3111 39.442 29.9881 39.2712 29.6968C39.1004 29.4055 38.8715 29.1521 38.5985 28.9521L38.5922 28.9479C38.5143 28.8878 38.42 28.8526 38.3215 28.847C38.2231 28.8414 38.1253 28.8657 38.0411 28.9167L38.0432 28.9146L35.0449 30.6146L32.692 29.2688L33.8779 28.5958C33.939 28.5517 33.9928 28.4983 34.0371 28.4375L34.0392 28.4354C34.0789 28.3557 34.1004 28.2682 34.1021 28.1792C34.0716 27.928 33.9908 27.6853 33.8645 27.4657C33.7382 27.246 33.5689 27.0536 33.3666 26.9L33.3625 26.8958C33.2882 26.8462 33.2005 26.8201 33.111 26.8208C33.043 26.8213 32.9758 26.8362 32.9141 26.8646L32.9162 26.8625L30.7246 28.1125L25.3419 25.0354L30.7225 21.9604L32.9141 23.2104C32.9851 23.2434 33.0634 23.2577 33.1416 23.2518C33.2198 23.246 33.2951 23.2203 33.3604 23.1771H33.3583C33.5637 23.0272 33.7356 22.8364 33.8629 22.6169C33.9902 22.3974 34.0703 22.154 34.0979 21.9021V21.8813C34.0983 21.7951 34.0759 21.7103 34.0329 21.6354L34.035 21.6375C33.9983 21.5701 33.9431 21.5145 33.8758 21.4771H33.8737L32.6878 20.8042L35.0407 19.4583L38.039 21.1583C38.1233 21.2093 38.2213 21.2334 38.3198 21.2275C38.4183 21.2215 38.5126 21.1858 38.5901 21.125C39.1306 20.7271 39.5015 20.1271 39.5874 19.4375L39.5895 19.425V19.4208C39.5902 19.3104 39.5673 19.2011 39.5225 19.1L39.5246 19.1042C39.4802 19.0434 39.4265 18.99 39.3653 18.9458L39.3632 18.9438L37.687 17.9833L39.6859 16.8292L42.6842 18.5292C43.1032 18.7854 43.6186 18.2729 43.9078 17.7604C44.0486 17.5798 44.1426 17.3675 44.1813 17.1422C44.22 16.9169 44.2024 16.6856 44.1299 16.4688L44.132 16.4792C44.0953 16.4118 44.04 16.3561 43.9727 16.3188H43.9706L42.2945 15.3583L44.3897 14.1417C44.5196 14.0458 44.5196 13.4375 43.9706 12.5083C43.4552 11.5792 42.9063 11.2583 42.747 11.3542L40.6518 12.5708V10.6146C40.6494 10.5344 40.6263 10.4562 40.5847 10.3875L40.5868 10.3896C40.4295 10.2273 40.2368 10.1031 40.0236 10.0265C39.8103 9.94995 39.5823 9.92306 39.3569 9.94793H39.3632C38.7828 9.94793 38.0747 10.1083 38.0747 10.6208V14.05L36.0758 15.2042V13.225C36.0754 13.1526 36.0527 13.0821 36.0108 13.0229C35.9487 12.9268 35.8609 12.8496 35.7573 12.8L35.7531 12.7979C35.4434 12.6526 35.1049 12.5778 34.7624 12.5789C34.4199 12.5799 34.082 12.6569 33.7731 12.8042L33.7878 12.7979C33.7073 12.8454 33.6373 12.9087 33.5822 12.9839C33.5271 13.0591 33.488 13.1447 33.4672 13.2354V16.6688L31.1143 18.0146V16.6375L31.1164 16.6083C31.1163 16.5479 31.0931 16.4898 31.0514 16.4458C31.0046 16.368 30.9391 16.3029 30.8607 16.2563L30.8586 16.2542C30.379 16.059 29.8412 16.0605 29.3626 16.2583L29.3752 16.2542C29.3002 16.2873 29.2361 16.3409 29.1905 16.4087C29.1449 16.4766 29.1196 16.5559 29.1175 16.6375V19.1438L23.7348 22.2208V16.0313L25.9265 14.7813C25.9953 14.7403 26.0523 14.6823 26.092 14.613C26.1316 14.5436 26.1526 14.4652 26.1527 14.3854V14.3625C26.1222 14.1113 26.0414 13.8687 25.9151 13.649C25.7888 13.4293 25.6196 13.237 25.4173 13.0833L25.4131 13.0792C25.3388 13.0296 25.2512 13.0034 25.1617 13.0042C25.0937 13.0046 25.0265 13.0195 24.9647 13.0479L24.9668 13.0458L23.7809 13.7188V11.0271L26.7792 9.3271C26.8577 9.27918 26.9226 9.21211 26.9677 9.13226C27.0128 9.05241 27.0366 8.96243 27.0369 8.87085V8.84585V8.84793C26.9964 8.51317 26.8874 8.19021 26.7166 7.89892C26.5458 7.60763 26.3168 7.35418 26.0438 7.15418L26.0375 7.15002C25.9597 7.08987 25.8653 7.05466 25.7669 7.04908C25.6685 7.0435 25.5707 7.0678 25.4865 7.11877L25.4886 7.11668L23.8124 8.0771V5.8021L26.8106 4.1021C27.2297 3.84585 27.0369 3.17293 26.7457 2.65835C26.4545 2.14377 25.939 1.6271 25.5221 1.8896L23.8459 2.85002V0.437516C23.8459 0.2771 23.2969 -0.00415039 22.2346 -0.00415039C21.1724 -0.00415039 20.6234 0.2896 20.6234 0.437516V2.84168L18.9472 1.88127C18.5282 1.62502 18.0127 2.13752 17.7236 2.65002C17.4345 3.16252 17.2396 3.82918 17.6586 4.09377L20.6569 5.79377V8.06877L18.9807 7.10835C18.8964 7.05739 18.7985 7.03328 18.7 7.03924C18.6015 7.04519 18.5072 7.08094 18.4297 7.14168C18.1569 7.34085 17.9278 7.5932 17.7563 7.88333C17.5848 8.17346 17.4746 8.49529 17.4324 8.82918L17.4303 8.84168C17.4303 9.16043 17.5916 9.28335 17.688 9.32293L20.6863 11.0229V13.7146L19.5004 13.0417C19.4293 13.0087 19.351 12.9944 19.2728 13.0003C19.1947 13.0061 19.1193 13.0319 19.0541 13.075H19.0562C18.8507 13.2249 18.6789 13.4157 18.5515 13.6352C18.4242 13.8547 18.3442 14.0981 18.3166 14.35V14.3583L18.3145 14.3896C18.3141 14.4676 18.3347 14.5442 18.3741 14.6116C18.4135 14.679 18.4703 14.7347 18.5386 14.7729L18.5407 14.775L20.7324 16.025V22.2146L15.3497 19.1375V16.6313C15.3478 16.5499 15.3228 16.4707 15.2776 16.4029C15.2323 16.3351 15.1687 16.2813 15.0941 16.2479L15.092 16.2458C14.6123 16.0506 14.0745 16.0521 13.596 16.25L13.6086 16.2458C13.5335 16.2789 13.4695 16.3325 13.4238 16.4004C13.3782 16.4682 13.3529 16.5476 13.3508 16.6292V18.0083L10.9979 16.6625V13.2333C10.9957 13.1364 10.9642 13.0424 10.9073 12.9635C10.8505 12.8847 10.7711 12.8248 10.6794 12.7917L10.6752 12.7896C10.3655 12.6443 10.027 12.5695 9.68451 12.5705C9.342 12.5716 9.00405 12.6486 8.69522 12.7958L8.70989 12.7896C8.45217 12.95 8.38931 13.1417 8.41446 13.2313V15.1875L6.4156 14.0333V10.6104C6.4156 10.1292 5.70741 9.93752 5.12703 9.93752C4.54665 9.93752 3.83846 10.0979 3.83846 10.6104V12.5667L1.74322 11.35C1.61331 11.2542 1.06646 11.6063 0.519599 12.5042C0.00417054 13.4333 -0.0293532 14.0438 0.100552 14.1375L2.19579 15.3542L0.519599 16.3146C0.100552 16.5708 0.293314 17.2438 0.584552 17.7583C0.87579 18.2729 1.39122 18.7896 1.80817 18.5271L4.80646 16.8271L6.80531 17.9813L5.12912 18.9417C5.05063 18.9896 4.98576 19.0567 4.94066 19.1365C4.89555 19.2164 4.87172 19.3064 4.87141 19.3979V19.4229V19.4208C4.95941 20.1208 5.32817 20.7229 5.86455 21.1146L5.87084 21.1188C5.94867 21.1789 6.04305 21.2141 6.14147 21.2197C6.23988 21.2253 6.33768 21.201 6.42189 21.15L6.41979 21.1521L9.41808 19.4521L11.771 20.7979L10.5851 21.4708C10.5163 21.5118 10.4593 21.5698 10.4196 21.6392C10.3799 21.7085 10.359 21.7869 10.3588 21.8667V21.8896C10.3894 22.1408 10.4702 22.3834 10.5965 22.6031C10.7228 22.8228 10.892 23.0151 11.0943 23.1688L11.0985 23.1729C11.1728 23.2225 11.2604 23.2487 11.3499 23.2479C11.4179 23.2475 11.4851 23.2326 11.5468 23.2042L11.5447 23.2063L13.7364 21.9563L19.119 25.0333L13.7364 28.1104L11.5447 26.8604C11.4737 26.8274 11.3954 26.8132 11.3172 26.819C11.2391 26.8249 11.1637 26.8506 11.0985 26.8938H11.1006C10.8951 27.0437 10.7232 27.2344 10.5959 27.4539C10.4686 27.6734 10.3886 27.9169 10.3609 28.1688V28.1771L10.3588 28.2083C10.3585 28.2863 10.3791 28.363 10.4185 28.4303C10.4579 28.4977 10.5147 28.5534 10.583 28.5917L10.5851 28.5938L11.771 29.2667L9.41808 30.6125L6.41979 28.9125C6.33547 28.8616 6.23751 28.8374 6.13902 28.8434C6.04053 28.8494 5.94623 28.8851 5.86874 28.9458C5.59594 29.145 5.36681 29.3974 5.19534 29.6875C5.02387 29.9776 4.91365 30.2995 4.87141 30.6333L4.86931 30.6458C4.86931 30.9646 5.03065 31.0875 5.12703 31.1271L6.80322 32.0875L4.80436 33.2417L1.80608 31.5417C1.38703 31.2854 0.871599 31.7979 0.582456 32.3104C0.293313 32.8229 0.0984563 33.4896 0.517504 33.7542L2.19369 34.7146L0.0984563 35.9313C-0.0314485 36.0271 -0.0314485 36.6354 0.517504 37.5646C1.03293 38.4938 1.58188 38.8146 1.74112 38.7188L3.83636 37.5021V39.4584C3.83636 39.9396 4.54455 40.1313 5.12493 40.1313C5.70531 40.1313 6.4135 39.9709 6.4135 39.4584V36.0292L8.41236 34.875V36.8313C8.4148 36.9248 8.44358 37.0158 8.49543 37.0939C8.54729 37.1719 8.62014 37.234 8.70569 37.2729L8.70989 37.275C9.01965 37.4203 9.35809 37.4952 9.70059 37.4941C10.0431 37.493 10.3811 37.416 10.6899 37.2688L10.6752 37.275C10.7557 37.2276 10.8257 37.1643 10.8808 37.0891C10.9359 37.0138 10.975 36.9283 10.9958 36.8375V33.4042L13.3487 32.0583V33.4354C13.3506 33.5168 13.3756 33.596 13.4209 33.6638C13.4661 33.7316 13.5297 33.7854 13.6044 33.8188L13.6065 33.8208C14.0861 34.0161 14.6239 34.0146 15.1025 33.8167L15.0899 33.8208C15.1649 33.7878 15.229 33.7342 15.2746 33.6663C15.3202 33.5984 15.3455 33.5191 15.3476 33.4375V30.9313L20.6988 27.8563V34.0458L18.5072 35.2958C18.4384 35.3368 18.3813 35.3948 18.3417 35.4642C18.302 35.5335 18.2811 35.6119 18.2809 35.6917V35.7146C18.3115 35.9658 18.3922 36.2084 18.5186 36.4281C18.6449 36.6478 18.8141 36.8401 19.0164 36.9938L19.0206 36.9979C19.0855 37.0396 19.1651 37.0646 19.251 37.0646H19.2804H19.2783H19.2929C19.358 37.0643 19.421 37.0414 19.471 37L20.6569 36.3271V39.0188L17.6021 40.6833C17.5236 40.7313 17.4587 40.7983 17.4136 40.8782C17.3685 40.958 17.3447 41.048 17.3444 41.1396V41.1646V41.1625C17.4324 41.8625 17.8011 42.4646 18.3375 42.8563L18.3438 42.8604C18.4414 42.9173 18.5514 42.9502 18.6644 42.9563H18.679C18.7554 42.9562 18.83 42.9329 18.8927 42.8896H18.8906L20.5668 41.9292V44.2042L17.5686 45.9042C17.1495 46.1604 17.3423 46.8333 17.6314 47.3479C17.8891 47.7646 18.2432 48.1813 18.6308 48.1813C18.7107 48.1747 18.7884 48.152 18.8592 48.1146L18.855 48.1167L20.5312 47.1563V49.5604C20.5312 49.7208 21.0802 50.0021 22.1425 50.0021C23.2047 50.0021 23.7537 49.7083 23.7537 49.5604V47.1563L25.4299 48.1167C25.4986 48.1534 25.5742 48.1754 25.652 48.1813H25.6541C26.0082 48.1813 26.3958 47.7646 26.6535 47.3479C26.9489 46.8354 27.1375 46.1688 26.7164 45.9042L23.7181 44.2042V41.9292L25.3943 42.8896C25.4592 42.9292 25.5367 42.9521 25.6185 42.9542C25.7331 42.948 25.8445 42.9144 25.9432 42.8563L25.939 42.8584C26.4796 42.4604 26.8505 41.8604 26.9364 41.1708L26.9385 41.1584C26.9385 40.8396 26.7771 40.7167 26.6807 40.6771L23.6825 38.9771V36.2854L24.8684 36.9583C24.9175 36.9999 24.9799 37.0228 25.0444 37.0229H25.0611C25.1519 37.0133 25.2408 36.9909 25.3251 36.9563L25.3188 36.9583C25.5243 36.8084 25.6962 36.6177 25.8235 36.3982C25.9508 36.1787 26.0308 35.9353 26.0585 35.6834V35.675L26.0606 35.6438C26.0609 35.5658 26.0403 35.4892 26.0009 35.4218C25.9615 35.3544 25.9047 35.2987 25.8364 35.2604L25.8343 35.2583L23.6426 34.0083V27.8188L29.0253 30.8958V33.4021C29.0272 33.4835 29.0522 33.5626 29.0974 33.6305C29.1427 33.6983 29.2063 33.752 29.2809 33.7854L29.283 33.7875C29.7627 33.9827 30.3005 33.9812 30.779 33.7833L30.7665 33.7875C30.8448 33.7409 30.9103 33.6758 30.9571 33.5979L30.9592 33.5958C30.9902 33.5369 31.0121 33.4737 31.0242 33.4083V32.0271L33.3771 33.3729V36.8021C33.3813 37.0063 33.5133 37.1771 33.6956 37.2438L33.6998 37.2459C34.0096 37.3912 34.348 37.466 34.6905 37.4649C35.033 37.4638 35.371 37.3869 35.6798 37.2396L35.6651 37.2459C35.7632 37.1876 35.8498 37.112 35.9207 37.0229L35.9228 37.0209C35.9656 36.9621 35.9884 36.8913 35.9878 36.8188V34.8396L37.9866 35.9938V39.4229C37.9866 39.9042 38.6948 40.0959 39.2752 40.0959C39.4995 40.1197 39.7264 40.0924 39.9384 40.0158C40.1505 39.9393 40.3422 39.8156 40.4988 39.6542C40.5344 39.5847 40.5558 39.509 40.5617 39.4313V37.4729L42.6569 38.6896C42.7868 38.7854 43.3337 38.4334 43.8806 37.5354C44.396 36.6063 44.4295 35.9958 44.2996 35.9021L42.2986 34.7125Z" fill="#ACD5F8"/>
</g>
<defs>
<clipPath id="clip0_50_783">
<rect width="44" height="50" fill="white"/>
</clipPath>
</defs>
</svg>
