<svg viewBox="0 0 18 20" xmlns="http://www.w3.org/2000/svg">
    <path
        d="M16.7481 5.05344C16.7776 4.64027 16.4666 4.28142 16.0534 4.25191C15.6403 4.22239 15.2814 4.5334 15.2519 4.94656L16.7481 5.05344ZM15.1327 17.1425L14.3846 17.0891L15.1327 17.1425ZM2.86732 17.1425L3.61542 17.0891L2.86732 17.1425ZM2.74809 4.94656C2.71858 4.5334 2.35973 4.22239 1.94656 4.25191C1.5334 4.28142 1.22239 4.64027 1.25191 5.05344L2.74809 4.94656ZM7.75 9C7.75 8.58579 7.41421 8.25 7 8.25C6.58579 8.25 6.25 8.58579 6.25 9H7.75ZM6.25 15C6.25 15.4142 6.58579 15.75 7 15.75C7.41421 15.75 7.75 15.4142 7.75 15H6.25ZM11.75 9C11.75 8.58579 11.4142 8.25 11 8.25C10.5858 8.25 10.25 8.58579 10.25 9H11.75ZM10.25 15C10.25 15.4142 10.5858 15.75 11 15.75C11.4142 15.75 11.75 15.4142 11.75 15H10.25ZM11.25 5C11.25 5.41421 11.5858 5.75 12 5.75C12.4142 5.75 12.75 5.41421 12.75 5H11.25ZM5.25 5C5.25 5.41421 5.58579 5.75 6 5.75C6.41421 5.75 6.75 5.41421 6.75 5H5.25ZM1 4.25C0.585786 4.25 0.25 4.58579 0.25 5C0.25 5.41421 0.585786 5.75 1 5.75V4.25ZM17 5.75C17.4142 5.75 17.75 5.41421 17.75 5C17.75 4.58579 17.4142 4.25 17 4.25V5.75ZM15.2519 4.94656L14.3846 17.0891L15.8808 17.1959L16.7481 5.05344L15.2519 4.94656ZM13.1378 18.25H4.86224V19.75H13.1378V18.25ZM3.61542 17.0891L2.74809 4.94656L1.25191 5.05344L2.11923 17.1959L3.61542 17.0891ZM4.86224 18.25C4.20644 18.25 3.66214 17.7432 3.61542 17.0891L2.11923 17.1959C2.22202 18.635 3.41948 19.75 4.86224 19.75V18.25ZM14.3846 17.0891C14.3379 17.7432 13.7936 18.25 13.1378 18.25V19.75C14.5805 19.75 15.778 18.635 15.8808 17.1959L14.3846 17.0891ZM6.25 9V15H7.75V9H6.25ZM10.25 9V15H11.75V9H10.25ZM7 1.75H11V0.25H7V1.75ZM11.25 2V5H12.75V2H11.25ZM6.75 5V2H5.25V5H6.75ZM11 1.75C11.1381 1.75 11.25 1.86193 11.25 2H12.75C12.75 1.0335 11.9665 0.25 11 0.25V1.75ZM7 0.25C6.0335 0.25 5.25 1.0335 5.25 2H6.75C6.75 1.86193 6.86193 1.75 7 1.75V0.25ZM1 5.75H17V4.25H1V5.75Z"/>
</svg>
