<svg viewBox="0 0 24 25" fill="currentColor" xmlns="http://www.w3.org/2000/svg">
<path d="M22 20.5V21.25C22.4142 21.25 22.75 20.9142 22.75 20.5H22ZM2 20.5H1.25C1.25 20.9142 1.58579 21.25 2 21.25V20.5ZM16.6438 16.6429L15.9475 16.9216L16.6438 16.6429ZM14.25 7.5C14.25 8.74264 13.2426 9.75 12 9.75V11.25C14.0711 11.25 15.75 9.57107 15.75 7.5H14.25ZM12 9.75C10.7574 9.75 9.75 8.74264 9.75 7.5H8.25C8.25 9.57107 9.92893 11.25 12 11.25V9.75ZM9.75 7.5C9.75 6.25736 10.7574 5.25 12 5.25V3.75C9.92893 3.75 8.25 5.42893 8.25 7.5H9.75ZM12 5.25C13.2426 5.25 14.25 6.25736 14.25 7.5H15.75C15.75 5.42893 14.0711 3.75 12 3.75V5.25ZM20.25 10.5C20.25 11.1904 19.6904 11.75 19 11.75V13.25C20.5188 13.25 21.75 12.0188 21.75 10.5H20.25ZM19 11.75C18.3096 11.75 17.75 11.1904 17.75 10.5H16.25C16.25 12.0188 17.4812 13.25 19 13.25V11.75ZM17.75 10.5C17.75 9.80964 18.3096 9.25 19 9.25V7.75C17.4812 7.75 16.25 8.98122 16.25 10.5H17.75ZM19 9.25C19.6904 9.25 20.25 9.80964 20.25 10.5H21.75C21.75 8.98122 20.5188 7.75 19 7.75V9.25ZM6.25 10.5C6.25 11.1904 5.69036 11.75 5 11.75V13.25C6.51878 13.25 7.75 12.0188 7.75 10.5H6.25ZM5 11.75C4.30964 11.75 3.75 11.1904 3.75 10.5H2.25C2.25 12.0188 3.48122 13.25 5 13.25V11.75ZM3.75 10.5C3.75 9.80964 4.30964 9.25 5 9.25V7.75C3.48122 7.75 2.25 8.98122 2.25 10.5H3.75ZM5 9.25C5.69036 9.25 6.25 9.80964 6.25 10.5H7.75C7.75 8.98122 6.51878 7.75 5 7.75V9.25ZM19 16.25C20.2426 16.25 21.25 17.2574 21.25 18.5H22.75C22.75 16.4289 21.0711 14.75 19 14.75V16.25ZM21.25 18.5V20.5H22.75V18.5H21.25ZM22 19.75H17V21.25H22V19.75ZM2.75 18.5C2.75 17.2574 3.75736 16.25 5 16.25V14.75C2.92893 14.75 1.25 16.4289 1.25 18.5H2.75ZM7 19.75H2V21.25H7V19.75ZM2.75 20.5V18.5H1.25V20.5H2.75ZM6.25 18.5V20.5H7.75V18.5H6.25ZM7 21.25H17V19.75H7V21.25ZM17.75 20.5V18.5H16.25V20.5H17.75ZM7.75 18.5C7.75 17.9408 7.8576 17.4086 8.05254 16.9216L6.65996 16.3642C6.39525 17.0255 6.25 17.7467 6.25 18.5H7.75ZM8.05254 16.9216C8.67975 15.3547 10.2118 14.25 12 14.25V12.75C9.57786 12.75 7.50726 14.2474 6.65996 16.3642L8.05254 16.9216ZM5 16.25C5.71633 16.25 6.35424 16.5839 6.76752 17.1075L7.94497 16.1782C7.25948 15.3097 6.19488 14.75 5 14.75V16.25ZM12 14.25C13.7882 14.25 15.3203 15.3547 15.9475 16.9216L17.34 16.3642C16.4927 14.2474 14.4221 12.75 12 12.75V14.25ZM15.9475 16.9216C16.1424 17.4086 16.25 17.9408 16.25 18.5H17.75C17.75 17.7467 17.6048 17.0255 17.34 16.3642L15.9475 16.9216ZM17.2325 17.1075C17.6458 16.5839 18.2837 16.25 19 16.25V14.75C17.8051 14.75 16.7405 15.3097 16.055 16.1782L17.2325 17.1075Z"/>
</svg>
